<?xml version="1.0" encoding="utf-8"?>
<!-- Generator: Adobe Illustrator 24.3.0, SVG Export Plug-In . SVG Version: 6.00 Build 0)  -->
<svg version="1.1" id="Calque_1" xmlns="http://www.w3.org/2000/svg" xmlns:xlink="http://www.w3.org/1999/xlink" x="0px" y="0px"
	 viewBox="0 0 50 50" style="enable-background:new 0 0 50 50;" xml:space="preserve">
<style type="text/css">
	.st0{fill:none;stroke:#000000;stroke-miterlimit:10;}
	.st1{fill:none;stroke:#000000;stroke-width:10;}
</style>
<g id="Groupe_21" transform="translate(1725.12 81.12)">
	<g id="Ellipse_6" transform="translate(-0.12 -0.12)">
		<circle class="st0" cx="-1700" cy="-56" r="15"/>
		<circle class="st1" cx="-1700" cy="-56" r="20"/>
	</g>
</g>
<g id="linkedin" transform="translate(1734 89.286)">
	<path id="Tracé_62" d="M-1701.5-57.5L-1701.5-57.5v-5c0-2.4-0.5-4.3-3.4-4.3c-1.1,0-2.1,0.5-2.7,1.5l0,0v-1.2h-2.7v9h2.8V-62
		c0-1.2,0.2-2.3,1.7-2.3c1.4,0,1.5,1.3,1.5,2.4v4.4H-1701.5z"/>
	<path id="Tracé_63" d="M-1714.8-66.5h2.8v9h-2.8V-66.5z"/>
	<path id="Tracé_64" d="M-1713.4-71c-0.9,0-1.6,0.7-1.6,1.6s0.7,1.6,1.6,1.6s1.6-0.7,1.6-1.6l0,0C-1711.8-70.3-1712.5-71-1713.4-71
		z"/>
</g>
</svg>
