<?xml version="1.0" encoding="utf-8"?>
<!-- Generator: Adobe Illustrator 24.3.0, SVG Export Plug-In . SVG Version: 6.00 Build 0)  -->
<svg version="1.1" id="Calque_1" xmlns="http://www.w3.org/2000/svg" xmlns:xlink="http://www.w3.org/1999/xlink" x="0px" y="0px"
	 viewBox="0 0 50.9 50.9" style="enable-background:new 0 0 50.9 50.9;" xml:space="preserve">
<style type="text/css">
	.st0{display:none;fill:#2C37FF;stroke:#000000;stroke-miterlimit:10;}
	.st1{fill:none;stroke:#FFFFFF;stroke-miterlimit:10;}
	.st2{fill:none;}
	.st3{fill:none;stroke:#FFFFFF;stroke-width:10;}
	.st4{fill:#FFFFFF;}
</style>
<rect x="-5.8" y="-4.4" class="st0" width="66.6" height="61.6"/>
<ellipse class="st1" cx="25.5" cy="25.1" rx="14.9" ry="15.2"/>
<circle class="st1" cx="25.5" cy="25.4" r="24.9"/>
<g id="Groupe_38" transform="translate(-1715 -71)">
	<g id="Groupe_21" transform="translate(1725.12 81.12)">
		<g id="Ellipse_6" transform="translate(-0.12 -0.12)">
			<circle class="st2" cx="15.8" cy="15.1" r="15"/>
			<circle class="st3" cx="15.8" cy="15.1" r="20"/>
		</g>
	</g>
	<g id="linkedin" transform="translate(1734 89.286)">
		<path id="Tracé_62" class="st4" d="M14.3,13.7L14.3,13.7v-5c0-2.4-0.5-4.3-3.4-4.3c-1.1,0-2.1,0.5-2.7,1.5h0V4.6H5.5v9h2.8V9.2
			C8.3,8,8.6,6.9,10,6.9c1.4,0,1.5,1.3,1.5,2.4v4.4L14.3,13.7z"/>
		<path id="Tracé_63" class="st4" d="M1,4.6h2.8v9H1V4.6z"/>
		<path id="Tracé_64" class="st4" d="M2.4,0.1c-0.9,0-1.6,0.7-1.6,1.6c0,0.9,0.7,1.6,1.6,1.6S4,2.7,4,1.8c0,0,0,0,0,0
			C4,0.9,3.3,0.2,2.4,0.1z"/>
	</g>
</g>
</svg>
