<?xml version="1.0" encoding="utf-8"?>
<!-- Generator: Adobe Illustrator 24.3.0, SVG Export Plug-In . SVG Version: 6.00 Build 0)  -->
<svg version="1.1" id="Calque_1" xmlns="http://www.w3.org/2000/svg" xmlns:xlink="http://www.w3.org/1999/xlink" x="0px" y="0px"
	 viewBox="0 0 50 50" style="enable-background:new 0 0 50 50;" xml:space="preserve">
<style type="text/css">
	.st0{fill:#FFFFFF;stroke:#000000;stroke-miterlimit:10;}
	.st1{fill:none;stroke:#000000;stroke-miterlimit:10;}
	.st2{fill:none;stroke:#000000;stroke-width:10;}
</style>
<circle class="st0" cx="25" cy="25" r="19.6"/>
<g id="Groupe_21" transform="translate(1725.12 81.12)">
	<g id="Ellipse_6" transform="translate(-0.12 -0.12)">
		<circle class="st1" cx="-1700" cy="-56" r="15"/>
		<circle class="st2" cx="-1700" cy="-56" r="20"/>
	</g>
</g>
<path d="M35.9,31.7c0,0,0-0.1,0-0.1V18.1c0,0,0-0.1,0-0.1c0,0,0,0,0,0c0,0,0-0.1-0.1-0.1c0,0,0,0,0,0c0,0,0,0,0,0
	c0,0-0.1-0.1-0.1-0.1c0,0,0,0,0,0c0,0-0.1,0-0.1,0c0,0,0,0,0,0c0,0,0,0,0,0H14.4c0,0,0,0,0,0c0,0,0,0,0,0c0,0-0.1,0-0.1,0
	c0,0,0,0,0,0c0,0-0.1,0-0.1,0.1c0,0,0,0,0,0c0,0,0,0,0,0c0,0-0.1,0.1-0.1,0.1c0,0,0,0,0,0c0,0,0,0.1,0,0.1v13.5c0,0,0,0.1,0,0.1
	c0,0,0,0,0,0c0,0,0,0.1,0.1,0.1c0,0,0,0,0,0c0,0,0,0,0,0c0,0,0,0,0,0c0,0,0,0,0,0c0,0,0,0,0.1,0c0,0,0,0,0,0c0,0,0.1,0,0.1,0h21.1
	c0.1,0,0.1,0,0.1,0c0,0,0,0,0,0c0,0,0,0,0,0c0,0,0,0,0,0c0,0,0,0,0,0c0,0,0,0,0,0c0,0,0,0,0,0C35.9,31.8,35.9,31.8,35.9,31.7
	C35.9,31.8,35.9,31.7,35.9,31.7z M14.8,19l6.4,5.9l-6.4,5.9V19z M28,24.6C27.9,24.6,27.9,24.6,28,24.6C27.9,24.6,27.9,24.7,28,24.6
	l-3,2.7l-9.6-8.7h19.1L28,24.6z M21.8,25.4l2.9,2.7c0.1,0.1,0.2,0.1,0.3,0.1c0.1,0,0.2,0,0.3-0.1l2.9-2.7l6.4,5.8H15.4L21.8,25.4z
	 M28.7,24.9l6.4-5.9v11.8L28.7,24.9z"/>
</svg>
