<?xml version="1.0" encoding="utf-8"?>
<!-- Generator: Adobe Illustrator 24.3.0, SVG Export Plug-In . SVG Version: 6.00 Build 0)  -->
<svg version="1.1" id="Calque_1" xmlns="http://www.w3.org/2000/svg" xmlns:xlink="http://www.w3.org/1999/xlink" x="0px" y="0px"
	 viewBox="0 0 50 50" style="enable-background:new 0 0 50 50;" xml:space="preserve">
<style type="text/css">
	.st0{fill:none;stroke:#000000;stroke-miterlimit:10;}
	.st1{fill:none;stroke:#000000;stroke-width:10;}
</style>
<g id="Groupe_20" transform="translate(1783.12 81.12)">
	<g id="Ellipse_6" transform="translate(-0.12 -0.12)">
		<circle class="st0" cx="-1758" cy="-56" r="15"/>
		<circle class="st1" cx="-1758" cy="-56" r="20"/>
	</g>
</g>
<g id="phone" transform="translate(1790.223 89.286)">
	<g id="Groupe_31" transform="translate(0.539 0)">
		<path id="Tracé_74" d="M-1758.4-59.9l-2.1-2.1c-0.5-0.6-1.4-0.6-2,0c-0.2,0.2-0.3,0.3-0.3,0.6c-0.2,0.7-1,1.1-1.7,0.9
			c-1.8-0.7-3.3-2.1-3.9-3.9c-0.2-0.7,0.2-1.4,0.9-1.7c0.7-0.2,1.1-1,0.9-1.8c-0.1-0.2-0.2-0.4-0.3-0.5l-2.1-2.1
			c-0.6-0.5-1.5-0.5-2,0l-1.4,1.4c-1.4,1.5,0.1,5.5,3.7,9c3.5,3.5,7.5,5.2,9,3.7l1.4-1.4C-1757.8-58.5-1757.8-59.4-1758.4-59.9z"/>
	</g>
</g>
</svg>
