<?xml version="1.0" encoding="utf-8"?>
<!-- Generator: Adobe Illustrator 24.3.0, SVG Export Plug-In . SVG Version: 6.00 Build 0)  -->
<svg version="1.1" id="Calque_1" xmlns="http://www.w3.org/2000/svg" xmlns:xlink="http://www.w3.org/1999/xlink" x="0px" y="0px"
	 viewBox="0 0 400.1 50" style="enable-background:new 0 0 400.1 50;" xml:space="preserve">
<style type="text/css">
	.st0{fill:none;stroke:#FFFFFF;stroke-miterlimit:10;}
	.st1{fill:none;stroke:#FFFFFF;stroke-width:10;}
	.st2{fill:#FFFFFF;}
	.st3{fill:#FFFFFF;stroke:#FFFFFF;stroke-miterlimit:10;}
</style>
<g id="Groupe_21" transform="translate(1725.12 81.12)">
	<g id="Ellipse_6" transform="translate(-0.12 -0.12)">
		<circle class="st0" cx="-1350" cy="-56" r="15"/>
		<circle class="st1" cx="-1350" cy="-56" r="20"/>
	</g>
</g>
<path id="Polygone_1" class="st2" d="M384.5,25l-14.8,11.6V13.4L384.5,25z"/>
<rect x="0.9" y="21.5" class="st3" width="208" height="7"/>
<rect x="213.6" y="21.5" class="st3" width="9" height="7"/>
<rect x="227.2" y="21.5" class="st3" width="9" height="7"/>
<rect x="240.7" y="21.5" class="st3" width="9" height="7"/>
<rect x="254.3" y="21.5" class="st3" width="9" height="7"/>
<rect x="267.8" y="21.5" class="st3" width="9" height="7"/>
<rect x="281.4" y="21.5" class="st3" width="9" height="7"/>
<rect x="294.9" y="21.4" class="st3" width="9" height="7"/>
<rect x="310.1" y="21.5" class="st3" width="9" height="7"/>
<rect x="325.2" y="21.4" class="st3" width="9" height="7"/>
<rect x="340.4" y="21.5" class="st3" width="6.5" height="7"/>
</svg>
