<?xml version="1.0" encoding="utf-8"?>
<!-- Generator: Adobe Illustrator 24.3.0, SVG Export Plug-In . SVG Version: 6.00 Build 0)  -->
<svg version="1.1" id="Calque_1" xmlns="http://www.w3.org/2000/svg" xmlns:xlink="http://www.w3.org/1999/xlink" x="0px" y="0px"
	 viewBox="0 0 402.8 51.4" style="enable-background:new 0 0 402.8 51.4;" xml:space="preserve">
<style type="text/css">
	.st0{fill:none;stroke:#E2001A;stroke-miterlimit:10;}
	.st1{fill:none;stroke:#E2001A;stroke-width:10;}
	.st2{fill:#E2001A;}
	.st3{fill:#E2001A;stroke:#E2001A;stroke-miterlimit:10;}
</style>
<g id="Groupe_21" transform="translate(1725.12 81.12)">
	<g id="Ellipse_6" transform="translate(-0.12 -0.12)">
		<circle class="st0" cx="-1347.8" cy="-55.3" r="15"/>
		<circle class="st1" cx="-1347.8" cy="-55.3" r="20"/>
	</g>
</g>
<path id="Polygone_1" class="st2" d="M386.7,25.7l-14.8,11.6V14.1L386.7,25.7z"/>
<rect x="0.9" y="22.2" class="st3" width="209.9" height="7"/>
<rect x="214" y="22.2" class="st3" width="9.7" height="7"/>
<rect x="227.4" y="22.2" class="st3" width="9.7" height="7"/>
<rect x="240.6" y="22.2" class="st3" width="9.7" height="7"/>
<rect x="253.3" y="22.2" class="st3" width="9.7" height="7"/>
<rect x="266.2" y="22.2" class="st3" width="9.7" height="7"/>
<rect x="279.2" y="22.2" class="st3" width="9.7" height="7"/>
<rect x="292.3" y="22.2" class="st3" width="9.7" height="7"/>
<rect x="306.2" y="22.2" class="st3" width="9.7" height="7"/>
<rect x="320" y="22.2" class="st3" width="9.7" height="7"/>
<rect x="333.2" y="22.2" class="st3" width="9.7" height="7"/>
<rect x="346.6" y="22.2" class="st3" width="3.7" height="7"/>
</svg>
