<?xml version="1.0" encoding="utf-8"?>
<!-- Generator: Adobe Illustrator 24.3.0, SVG Export Plug-In . SVG Version: 6.00 Build 0)  -->
<svg version="1.1" id="Calque_1" xmlns="http://www.w3.org/2000/svg" xmlns:xlink="http://www.w3.org/1999/xlink" x="0px" y="0px"
	 viewBox="0 0 393 340.3" style="enable-background:new 0 0 393 340.3;" xml:space="preserve">
<style type="text/css">
	.st0{fill:#030201;}
</style>
<path id="Tracé_12" d="M234,24.1c16.4,15.4,24.1,34.7,24.1,56.8c0,23.1-7.7,41.4-23.1,57.8c-34.7,34.7-104,22.2-120.4,65.5
	C103,163.8,78.9,65.5,121.3,23.1C136.7,7.7,156,0,178.1,0S218.6,7.7,234,24.1z"/>
<path id="Tracé_13" d="M148.9,340.3c-9.6,0.2-18.8-3.6-25.6-10.4c-19.1-19.1-8.2-63.3-3-81.5c7.4,19.5,38.6,13.9,54.2,29.5
	c6.8,6.9,10.6,16.3,10.4,26c0.2,9.7-3.7,19-10.8,25.6C167.6,336.6,158.5,340.5,148.9,340.3z"/>
<g id="Groupe_6" transform="translate(14.536 181.162)">
	<path id="Tracé_14" class="st0" d="M44.8,3.7c-20.3,0-29.4,14.1-29.4,28v27.3c0,6.6,4.9,11.3,12,11.3H33V32.7
		c0-8.1,4-13.2,10.5-13.2c7.9,0,11.8,4.7,11.8,14.4V59c0,6.6,5.1,11.3,12.4,11.3h5.2V32.5C72.9,12.6,58.8,3.7,44.8,3.7z"/>
	<path id="Tracé_15" class="st0" d="M167.7,30.5c-11.3-1.8-11.8-3.1-11.8-5.3c0-2.6,1.2-6.1,11.7-6.1c6.9,0,14.1,2.3,17.4,5.6
		l0.3,0.3h1.9v-6.9c0-6.9-6.6-14.4-21.1-14.4c-15.8,0-27.8,9.8-27.8,22.8c0,10,6.7,15.7,20.6,17.7c11.4,1.6,12.3,3.4,12.3,6
		c0,2.6-1.1,5.9-10.5,5.9c-7.6,0-15.3-2.9-18.3-5.7l-0.3-0.3h-1.9v8.1c0,7.4,9.5,13.4,21.2,13.4c17.3,0,27.3-8.1,27.3-22.3
		C188.6,39.1,181.6,32.7,167.7,30.5z"/>
	<path id="Tracé_16" class="st0" d="M199.1,19.4v51.3h5.4c7.9,0,12.2-4.5,12.2-12.7V6.7h-5.4C203.5,6.7,199.1,11.2,199.1,19.4z"/>
	<path id="Tracé_17" class="st0" d="M-14.5,19.4v51.3h5.4c7.9,0,12.2-4.5,12.2-12.7V6.7h-5.4C-10.2,6.7-14.5,11.2-14.5,19.4z"/>
	<path id="Tracé_18" class="st0" d="M247.2-9.2h-4.6c-2.6,0-5.6,1.7-8.1,4.7c-3.5,4.1-4.8,6.8-4.8,13.1v37.9
		c0,15.7,8.7,24.4,24.6,24.4c9.4,0,14.8-4.2,14.8-11.5v-6.6h-1.8L267,53c-2.2,1.4-5.9,2.1-10.9,2.1c-6.2,0-9-3.2-9-10.4V20.9h11.6
		c6.7,0,10.3-4.4,10.3-8.5V5.1h-21.9L247.2-9.2z"/>
	<path id="Tracé_19" class="st0" d="M320,5.1h-3.8v36.4c0,9.3-3.5,14.3-10.1,14.3c-7.6,0-11.8-5.4-11.8-15.3V17.3
		c0-8.1-4.7-12.2-14-12.2h-3.9V42c0,17.7,11.6,29.6,28.8,29.6c19,0,28.6-10.3,28.6-30.7V17.3C333.9,9.1,329.4,5.1,320,5.1z"/>
</g>
<g id="Groupe_9" transform="translate(14.857 171.711)">
	<path id="Tracé_44" d="M-4.5-9.2c-5.6,0-10.2,4.5-10.2,10.2s4.5,10.2,10.2,10.2C1.2,11,5.7,6.5,5.8,0.9C5.7-4.7,1.2-9.2-4.5-9.2z"
		/>
	<path id="Tracé_45" d="M207.5,85c-5.6,0-10.1,4.6-10.1,10.2c0,5.6,4.6,10.1,10.2,10.1c5.6,0,10.1-4.5,10.1-10.1
		C217.6,89.6,213.1,85.1,207.5,85z"/>
</g>
</svg>
