<?xml version="1.0" encoding="utf-8"?>
<!-- Generator: Adobe Illustrator 24.3.0, SVG Export Plug-In . SVG Version: 6.00 Build 0)  -->
<svg version="1.1" id="Calque_1" xmlns="http://www.w3.org/2000/svg" xmlns:xlink="http://www.w3.org/1999/xlink" x="0px" y="0px"
	 viewBox="0 0 93 91" style="enable-background:new 0 0 93 91;" xml:space="preserve">
<style type="text/css">
	.st0{fill:#FFFFFF;}
</style>
<g id="Groupe_18" transform="translate(-14.536 -9.21)">
	<path id="Tracé_12" class="st0" d="M76.84,16.09c4.18,3.87,6.5,9.34,6.37,15.03c0.11,5.71-2.1,11.22-6.11,15.28
		c-9.17,9.17-27.51,5.86-31.84,17.32c-3.05-10.7-9.42-36.68,1.78-47.89c3.96-4.01,9.39-6.22,15.03-6.11
		C67.68,9.59,73.08,11.91,76.84,16.09z"/>
	<path id="Tracé_13" class="st0" d="M54.33,99.71c-2.54,0.05-4.98-0.95-6.76-2.75c-5.05-5.04-2.18-16.74-0.8-21.56
		c1.95,5.16,10.2,3.67,14.33,7.8c1.81,1.83,2.8,4.31,2.75,6.88c0.06,2.56-0.99,5.03-2.87,6.77C59.29,98.72,56.86,99.76,54.33,99.71z
		"/>
	<g id="Groupe_6" transform="translate(14.536 86.656)">
		<path id="Tracé_14" class="st0" d="M16.11-28.06c-5.37,0-7.78,3.72-7.78,7.41v7.21c0,1.75,1.3,2.98,3.16,2.98h1.49v-9.91
			c0-2.15,1.07-3.49,2.78-3.49c2.1,0,3.12,1.24,3.12,3.8v6.63c0,1.75,1.35,2.98,3.29,2.98h1.37v-9.97
			C23.55-25.7,19.81-28.06,16.11-28.06z"/>
		<path id="Tracé_15" class="st0" d="M48.61-20.97c-2.99-0.49-3.13-0.83-3.13-1.39c0-0.69,0.32-1.6,3.09-1.6
			c1.83,0,3.72,0.61,4.59,1.47l0.07,0.07h0.51v-1.83c0-1.84-1.75-3.82-5.58-3.82c-4.19,0-7.34,2.6-7.34,6.04
			c0,2.63,1.78,4.16,5.45,4.68c3.02,0.42,3.25,0.9,3.25,1.58s-0.29,1.57-2.78,1.57c-2.02,0-4.05-0.77-4.85-1.51l-0.07-0.07h-0.51
			v2.14c0,1.95,2.52,3.54,5.61,3.54c4.59,0,7.22-2.15,7.22-5.89C54.15-18.7,52.29-20.38,48.61-20.97z"/>
		<path id="Tracé_16" class="st0" d="M56.93-23.91v13.57h1.43c2.08,0,3.23-1.19,3.23-3.35v-13.57h-1.43
			C58.07-27.26,56.93-26.07,56.93-23.91z"/>
		<path id="Tracé_17" class="st0" d="M0.42-23.91v13.57h1.43c2.08,0,3.23-1.19,3.23-3.35v-13.57H3.65
			C1.57-27.26,0.42-26.07,0.42-23.91z"/>
		<path id="Tracé_18" class="st0" d="M69.63-31.47h-1.22c-0.85,0.1-1.63,0.54-2.14,1.23c-0.91,0.92-1.37,2.19-1.27,3.48v10.03
			c0,4.16,2.31,6.45,6.51,6.45c2.48,0,3.91-1.11,3.91-3.04v-1.74h-0.48l-0.06,0.04c-0.89,0.43-1.88,0.62-2.87,0.55
			c-1.64,0-2.38-0.85-2.38-2.75v-6.28h3.06c1.77,0,2.73-1.15,2.73-2.24v-1.95h-5.79V-31.47z"/>
		<path id="Tracé_19" class="st0" d="M88.89-27.69h-0.99v9.63c0,2.47-0.92,3.77-2.66,3.77c-2.01,0-3.12-1.44-3.12-4.05v-6.13
			c0-2.14-1.24-3.23-3.69-3.23h-1.03v9.76c0,4.69,3.06,7.84,7.62,7.84c5.02,0,7.56-2.73,7.56-8.12v-6.25
			C92.58-26.63,91.37-27.69,88.89-27.69z"/>
	</g>
	<g id="Groupe_9" transform="translate(14.681 82.399)">
		<path id="Tracé_44" class="st0" d="M3.03-29.71c-1.48,0-2.68,1.2-2.68,2.69c0,1.48,1.2,2.68,2.68,2.68
			c1.48-0.02,2.68-1.22,2.7-2.7C5.72-28.52,4.51-29.72,3.03-29.71z"/>
		<path id="Tracé_45" class="st0" d="M59.08-4.79c-1.48,0.01-2.68,1.22-2.67,2.7s1.22,2.68,2.7,2.67c1.47-0.01,2.66-1.2,2.67-2.67
			C61.76-3.58,60.56-4.77,59.08-4.79z"/>
	</g>
</g>
</svg>
