<?xml version="1.0" encoding="utf-8"?>
<!-- Generator: Adobe Illustrator 24.3.0, SVG Export Plug-In . SVG Version: 6.00 Build 0)  -->
<svg version="1.1" id="Calque_1" xmlns="http://www.w3.org/2000/svg" xmlns:xlink="http://www.w3.org/1999/xlink" x="0px" y="0px"
	 viewBox="0 0 176.9 155.3" style="enable-background:new 0 0 176.9 155.3;" xml:space="preserve">
<style type="text/css">
	.st0{display:none;}
	.st1{display:inline;fill:#FF001B;}
	.st2{display:inline;fill:#FF0093;}
	.st3{display:inline;}
	.st4{fill:#030201;}
	.st5{fill:#FF001B;}
	.st6{stroke:#000000;stroke-miterlimit:10;}
</style>
<g id="Groupe_10" transform="translate(-14.536 -9.21)" class="st0">
	<path id="Tracé_12" class="st1" d="M121,22.4c7.4,6.9,10.8,15.5,10.8,25.4c0,10.4-3.5,18.5-10.4,25.9
		c-15.5,15.5-46.6,9.9-53.9,29.3c-5.2-18.1-16-62.1,3-81.1C77.4,15,86,11.5,96,11.5S114.1,15,121,22.4z"/>
	<path id="Tracé_13" class="st2" d="M82.9,164c-4.3,0.1-8.4-1.6-11.5-4.7c-8.5-8.5-3.7-28.4-1.4-36.5c3.3,8.7,17.3,6.2,24.3,13.2
		c3.1,3.1,4.7,7.3,4.7,11.7c0.1,4.3-1.7,8.5-4.9,11.5C91.3,162.3,87.2,164.1,82.9,164z"/>
	<g id="Groupe_6" transform="translate(14.536 181.162)" class="st3">
		<path id="Tracé_14" class="st4" d="M27.5-87.4c-9.1,0-13.2,6.3-13.2,12.5v12.2c0,3,2.2,5,5.4,5h2.5v-16.8c0-3.6,1.8-5.9,4.7-5.9
			c3.6,0,5.3,2.1,5.3,6.4v11.2c0,3,2.3,5,5.6,5h2.3v-16.9C40.1-83.4,33.7-87.4,27.5-87.4z"/>
		<path id="Tracé_15" class="st4" d="M82.5-75.4c-5.1-0.8-5.3-1.4-5.3-2.4c0-1.2,0.5-2.7,5.2-2.7c3.1,0,6.3,1,7.8,2.5l0.1,0.1h0.9
			V-81c0-3.1-3-6.5-9.5-6.5c-7.1,0-12.4,4.4-12.4,10.2c0,4.5,3,7.1,9.2,7.9c5.1,0.7,5.5,1.5,5.5,2.7S83.5-64,79.3-64
			c-3.4,0-6.9-1.3-8.2-2.6H71h-0.9v3.6c0,3.3,4.3,6,9.5,6c7.8,0,12.2-3.6,12.2-10C91.9-71.5,88.7-74.4,82.5-75.4z"/>
		<path id="Tracé_16" class="st4" d="M96.6-80.3v23H99c3.5,0,5.5-2,5.5-5.7v-23h-2.4C98.5-86,96.6-84,96.6-80.3z"/>
		<path id="Tracé_17" class="st4" d="M0.9-80.3v23h2.4c3.5,0,5.5-2,5.5-5.7v-23H6.3C2.8-86,0.9-84,0.9-80.3z"/>
		<path id="Tracé_18" class="st4" d="M118.1-93.2H116c-1.2,0-2.5,0.8-3.6,2.1c-1.6,1.9-2.1,3-2.1,5.9v17c0,7,3.9,10.9,11,10.9
			c4.2,0,6.6-1.9,6.6-5.1v-2.9h-0.8l-0.1,0.1c-1,0.6-2.6,0.9-4.9,0.9c-2.8,0-4-1.4-4-4.7v-10.6h5.2c3,0,4.6-1.9,4.6-3.8v-3.4h-9.8
			L118.1-93.2z"/>
		<path id="Tracé_19" class="st4" d="M150.7-86.8H149v16.3c0,4.2-1.6,6.4-4.5,6.4c-3.4,0-5.3-2.4-5.3-6.9v-10.4
			c0-3.6-2.1-5.5-6.3-5.5h-1.7v16.5c0,7.9,5.2,13.3,12.9,13.3c8.5,0,12.8-4.6,12.8-13.8v-10.6C157-85,154.9-86.8,150.7-86.8z"/>
	</g>
	<g id="Groupe_8" transform="translate(227.063 297.71)" class="st3">
		<g id="Groupe_7" transform="translate(0)">
			<path id="Tracé_20" class="st4" d="M-113.7-149.3c-1.1,0-1.7-0.5-1.7-1.7v-5.9h0.3c0.4,0,0.7,0.3,0.7,0.6v0.1v5.1
				c0,0.7,0.4,0.9,0.9,0.9h0.6v0.3C-112.9-149.5-113.2-149.3-113.7-149.3z"/>
			<path id="Tracé_21" class="st4" d="M-112-154c0.3-0.3,0.5-0.6,0.5-1c0-0.2-0.1-0.5-0.3-0.6c-0.2-0.1-0.3-0.3-0.3-0.5
				c0-0.4,0.3-0.7,0.6-0.7h0.1c0.4,0,0.8,0.4,0.8,1.2C-110.6-154.7-111.1-154-112-154L-112-154z"/>
			<path id="Tracé_22" class="st4" d="M-107.3-149.3c-1.1,0-2.1-0.7-2.1-1.7c0-1.2,0.9-1.9,2.6-1.9h0.8v-0.3c0-0.8-0.4-1.2-1.3-1.2
				c-0.7,0-1.3,0.2-1.8,0.8h-0.1v-0.5c0-0.5,0.7-1.2,1.9-1.2c1.4,0,2.2,0.7,2.2,2.1v1.8C-105.1-150.1-105.7-149.3-107.3-149.3z
				 M-106-152h-0.8c-1.1,0-1.6,0.3-1.6,1c0,0.5,0.5,0.9,1.2,0.9c0.9,0,1.2-0.3,1.2-1.1C-106-151.2-106-152-106-152z"/>
			<path id="Tracé_23" class="st4" d="M-99-150.2c0,1.7-1.2,2.5-2.7,2.5c-0.9,0-1.7-0.5-1.7-1.1v-0.4h0.1c0.5,0.4,1.1,0.7,1.8,0.6
				c0.8,0.1,1.5-0.5,1.6-1.3c0-0.1,0-0.2,0-0.3c0-0.2-0.1-0.4-0.1-0.7v-0.3c-0.2,0.6-0.9,1-1.6,1c-1.2,0.1-2.2-0.8-2.3-2
				c0-0.1,0-0.1,0-0.2c0-1.4,0.8-2.7,2.7-2.7c1.3,0,2.1,0.8,2.1,2.4v1.5C-99.1-150.9-99-150.4-99-150.2z M-101.4-154.2
				c-0.9,0-1.6,0.7-1.6,1.6v0.1c0,1.1,0.6,1.6,1.5,1.6c0.8,0,1.4-0.6,1.4-1.3c0-0.1,0-0.1,0-0.2C-100-153.7-100.4-154.2-101.4-154.2
				L-101.4-154.2z"/>
			<path id="Tracé_24" class="st4" d="M-95.4-151.7h-1.4c0.1,0.9,0.8,1.6,1.8,1.6l0,0c0.6,0,1.2-0.2,1.7-0.6h0.1v0.4
				c0,0.6-0.6,1-1.9,1c-1.5,0-2.6-1.2-2.6-2.8c0-1.8,1.1-3,2.6-3c1.1,0,2.1,0.8,2.1,1.9C-93.1-152.1-93.5-151.7-95.4-151.7z
				 M-95.3-154.2c-0.8,0-1.5,0.7-1.5,1.5v0.2h1.3c1.4,0,1.6-0.1,1.6-0.6C-94-153.7-94.4-154.2-95.3-154.2L-95.3-154.2z"/>
			<path id="Tracé_25" class="st4" d="M-87.5-149.4c-0.3,0-0.6-0.2-0.6-0.5c0-0.1,0-0.1,0-0.2v-2.6c0-1.2-0.4-1.6-1.4-1.6
				c-0.8,0-1.3,0.5-1.3,1.6v3.2h-0.4c-0.3,0-0.6-0.2-0.6-0.6v-2.6c0-1.6,0.9-2.5,2.4-2.5c1.4,0,2.3,0.8,2.3,2.5v3.2L-87.5-149.4z"/>
			<path id="Tracé_26" class="st4" d="M-81.6-153.4c-0.3-0.5-0.9-0.7-1.4-0.7c-1,0-1.8,0.8-1.9,1.8c0,0.1,0,0.1,0,0.2
				c0,1.5,1,2.1,1.9,2.1c0.5,0,1-0.1,1.4-0.5h0.1v0.4c0,0.4-0.4,1-1.6,1c-1.5-0.1-2.7-1.3-2.7-2.8c0-1.6,1.1-3,2.8-3
				c0.8,0,1.5,0.4,1.5,1.2L-81.6-153.4L-81.6-153.4z"/>
			<path id="Tracé_27" class="st4" d="M-78-151.7h-1.4c0.1,0.9,0.8,1.6,1.8,1.6l0,0c0.6,0,1.2-0.2,1.7-0.6h0.1v0.4
				c0,0.6-0.6,1-1.9,1c-1.5,0-2.6-1.2-2.6-2.8c0-1.8,1.1-3,2.6-3c1.1,0,2.1,0.8,2.1,1.9C-75.6-152.1-76.1-151.7-78-151.7z
				 M-77.9-154.2c-0.8,0-1.5,0.7-1.5,1.5v0.2h1.3c1.4,0,1.6-0.1,1.6-0.6C-76.6-153.7-77-154.2-77.9-154.2L-77.9-154.2z"/>
			<path id="Tracé_28" class="st4" d="M-69.6-149.3c-1.4,0-2.6-1.3-2.6-2.8c0-1.9,0.9-3,2.5-3c0.7,0,1.4,0.4,1.7,1.1v-2.9h0.3
				c0.5,0,0.7,0.3,0.7,0.8v3.8C-67.1-150.2-67.9-149.3-69.6-149.3z M-69.7-154.2c-1,0-1.5,0.7-1.5,2c0,1.1,0.7,2,1.7,2
				s1.5-0.5,1.5-1.9C-68.1-153.1-68.4-154.2-69.7-154.2L-69.7-154.2z"/>
			<path id="Tracé_29" class="st4" d="M-63.4-151.7h-1.4c0.1,0.9,0.8,1.6,1.8,1.6l0,0c0.6,0,1.2-0.2,1.7-0.6h0.1v0.4
				c0,0.6-0.6,1-1.9,1c-1.5,0-2.6-1.2-2.6-2.8c0-1.8,1.1-3,2.6-3c1.1,0,2.1,0.8,2.1,1.9C-61-152.1-61.5-151.7-63.4-151.7z
				 M-63.3-154.2c-0.8,0-1.5,0.7-1.5,1.5v0.2h1.3c1.4,0,1.6-0.1,1.6-0.6C-62-153.7-62.4-154.2-63.3-154.2L-63.3-154.2z"/>
			<path id="Tracé_30" class="st4" d="M-53.3-153.4c-0.3-0.5-0.9-0.7-1.4-0.7c-1,0-1.8,0.8-1.9,1.8c0,0.1,0,0.1,0,0.2
				c0,1.5,1,2.1,1.9,2.1c0.5,0,1-0.1,1.4-0.5h0.1v0.4c0,0.4-0.4,1-1.6,1c-1.5-0.1-2.7-1.3-2.7-2.8c0-1.6,1.1-3,2.8-3
				c0.8,0,1.5,0.4,1.5,1.2L-53.3-153.4L-53.3-153.4z"/>
			<path id="Tracé_31" class="st4" d="M-49.5-149.3c-1.5,0-2.6-1.1-2.6-2.8c0-1.9,1-3,2.6-3c1.5,0,2.5,1.1,2.5,2.8
				C-47-150.4-48-149.3-49.5-149.3z M-49.7-154.2c-0.9,0-1.5,0.7-1.5,1.9c0,1.3,0.6,2.1,1.7,2.1c0.9,0,1.5-0.8,1.5-1.9
				C-48-153.4-48.6-154.2-49.7-154.2L-49.7-154.2z"/>
			<path id="Tracé_32" class="st4" d="M-38.1-149.4c-0.3,0-0.6-0.3-0.6-0.6v-0.1v-2.5c0-1.2-0.4-1.6-1.2-1.6
				c-0.9,0-1.3,0.5-1.3,1.6v3.2h-0.3c-0.5,0-0.6-0.3-0.6-0.7v-2.5c0-1-0.4-1.6-1.3-1.6c-0.8,0-1.3,0.5-1.3,1.6v3.2H-45
				c-0.3,0-0.6-0.2-0.7-0.6v-0.1v-2.6c0-1.3,0.8-2.4,2.3-2.4c0.7,0,1.4,0.4,1.7,1c0.4-0.6,1-1,1.8-1c1.4,0,2.1,0.8,2.1,2.5v3.2
				L-38.1-149.4z"/>
			<path id="Tracé_33" class="st4" d="M-36.3-154c0.3-0.3,0.5-0.6,0.5-1c0-0.2-0.1-0.5-0.3-0.6s-0.3-0.3-0.3-0.5
				c0-0.4,0.3-0.7,0.6-0.7h0.1c0.4,0,0.8,0.4,0.8,1.2C-34.8-154.7-35.4-154-36.3-154L-36.3-154z"/>
			<path id="Tracé_34" class="st4" d="M-113.1-136.7c-1.4,0-2.6-1.3-2.6-2.8c0-1.9,0.9-3,2.5-3c0.7,0,1.4,0.4,1.7,1.1v-2.9h0.3
				c0.5,0,0.7,0.3,0.7,0.8v3.8C-110.5-137.6-111.3-136.7-113.1-136.7z M-113.2-141.6c-1,0-1.5,0.7-1.5,2c0,1.1,0.7,2,1.7,2
				s1.5-0.5,1.5-1.9C-111.5-140.5-111.8-141.6-113.2-141.6L-113.2-141.6z"/>
			<path id="Tracé_35" class="st4" d="M-106.9-139.2h-1.4c0.1,0.9,0.8,1.6,1.8,1.6l0,0c0.6,0,1.2-0.2,1.7-0.6h0.1v0.4
				c0,0.6-0.6,1-1.9,1c-1.5,0-2.6-1.2-2.6-2.8c0-1.8,1.1-3,2.6-3c1.1,0,2.1,0.8,2.1,1.9C-104.5-139.6-105-139.2-106.9-139.2z
				 M-106.7-141.6c-0.8,0-1.5,0.7-1.5,1.5v0.2h1.3c1.4,0,1.6-0.1,1.6-0.6C-105.4-141.1-105.8-141.6-106.7-141.6L-106.7-141.6z"/>
			<path id="Tracé_36" class="st4" d="M-101.6-136.7c-0.9,0-1.7-0.4-1.7-1.1v-0.4h0.1c0.4,0.4,1,0.6,1.7,0.6c0.8,0,1.2-0.3,1.2-0.8
				s-0.2-0.7-1.5-0.9c-1-0.2-1.5-0.6-1.5-1.4c0-0.9,0.8-1.8,2.2-1.8c0.8,0,1.6,0.4,1.6,1.1v0.4h-0.1c-0.4-0.4-0.9-0.6-1.5-0.6
				c-1,0-1.3,0.3-1.3,0.8c0,0.4,0.2,0.5,1.4,0.8c1.1,0.2,1.7,0.8,1.7,1.5C-99.4-137.3-100.3-136.7-101.6-136.7z"/>
			<path id="Tracé_37" class="st4" d="M-92.9-141.2c-0.2-0.2-0.5-0.3-0.9-0.3c-0.7,0-1,0.4-1,1.6v3.1h-0.4c-0.3,0-0.5-0.3-0.5-0.6
				v-2.6c0-1.6,0.8-2.4,1.8-2.4c0.8,0,1,0.3,1,0.7V-141.2L-92.9-141.2z"/>
			<path id="Tracé_38" class="st4" d="M-89.8-139.2h-1.4c0.1,0.9,0.8,1.6,1.8,1.6l0,0c0.6,0,1.2-0.2,1.7-0.6h0.1v0.4
				c0,0.6-0.6,1-1.9,1c-1.5,0-2.6-1.2-2.6-2.8c0-1.8,1.1-3,2.6-3c1.1,0,2.1,0.8,2.1,1.9C-87.4-139.6-87.9-139.2-89.8-139.2z
				 M-89.6-141.6c-0.8,0-1.5,0.7-1.5,1.5v0.2h1.3c1.4,0,1.6-0.1,1.6-0.6C-88.3-141.1-88.8-141.6-89.6-141.6L-89.6-141.6z
				 M-90.3-143.4c0.2-0.4,0.5-0.7,0.8-1c0.2-0.3,0.5-0.4,0.9-0.4c0.2,0,0.4,0.1,0.4,0.4c0,0,0,0,0,0.1c0,0.3-0.2,0.5-0.7,0.7
				c-0.4,0.2-0.8,0.3-1.3,0.3L-90.3-143.4L-90.3-143.4z"/>
			<path id="Tracé_39" class="st4" d="M-84.5-136.7c-0.9,0-1.7-0.4-1.7-1.1v-0.4h0.1c0.4,0.4,1,0.6,1.7,0.6c0.8,0,1.2-0.3,1.2-0.8
				s-0.2-0.7-1.5-0.9c-1-0.2-1.5-0.6-1.5-1.4c0-0.9,0.8-1.8,2.2-1.8c0.8,0,1.6,0.4,1.6,1.1v0.4h-0.1c-0.4-0.4-0.9-0.6-1.5-0.6
				c-1,0-1.3,0.3-1.3,0.8c0,0.4,0.2,0.5,1.4,0.8c1.1,0.2,1.7,0.8,1.7,1.5C-82.3-137.3-83.2-136.7-84.5-136.7z"/>
			<path id="Tracé_40" class="st4" d="M-78.8-139.2h-1.4c0.1,0.9,0.8,1.6,1.8,1.6l0,0c0.6,0,1.2-0.2,1.7-0.6h0.1v0.4
				c0,0.6-0.6,1-1.9,1c-1.5,0-2.6-1.2-2.6-2.8c0-1.8,1.1-3,2.6-3c1.1,0,2.1,0.8,2.1,1.9C-76.4-139.6-76.9-139.2-78.8-139.2z
				 M-78.6-141.6c-0.8,0-1.5,0.7-1.5,1.5v0.2h1.3c1.4,0,1.6-0.1,1.6-0.6C-77.3-141.1-77.8-141.6-78.6-141.6L-78.6-141.6z"/>
			<path id="Tracé_41" class="st4" d="M-73.1-136.7c-1.1,0-2.1-0.7-2.1-1.7c0-1.2,0.9-1.9,2.6-1.9h0.8v-0.3c0-0.8-0.4-1.2-1.3-1.2
				c-0.7,0-1.3,0.2-1.8,0.8H-75v-0.5c0-0.5,0.7-1.2,1.9-1.2c1.4,0,2.2,0.7,2.2,2.1v1.8C-71-137.5-71.6-136.7-73.1-136.7z
				 M-71.9-139.4h-0.8c-1.1,0-1.6,0.3-1.6,1c0,0.5,0.5,0.9,1.2,0.9c0.8,0,1.2-0.3,1.2-1.1C-71.9-138.6-71.9-139.4-71.9-139.4z"/>
			<path id="Tracé_42" class="st4" d="M-67.2-136.7c-1.4,0-2.3-1-2.3-2.6v-3.1h0.3c0.4,0,0.7,0.3,0.7,0.7v2.3
				c0,1.1,0.6,1.7,1.4,1.7c0.9,0,1.3-0.5,1.3-1.7v-3.1h0.3c0.5,0,0.7,0.2,0.7,0.7v2.5C-64.9-137.6-65.7-136.7-67.2-136.7z"/>
			<path id="Tracé_43" class="st4" d="M-59-137c-0.1,0.2-0.3,0.3-0.5,0.3c-0.5,0-0.6-0.1-1.1-0.6c-0.4-0.5-0.8-1.1-1.1-1.6
				c-0.6,0.6-1.2,1.3-1.3,2.2h-0.4c-0.2,0-0.4-0.2-0.4-0.4l0,0c0-0.2,0.1-0.5,0.2-0.7c0.4-0.7,0.9-1.3,1.4-1.8l-1.7-2.5v-0.1h0.6
				c0.3,0,0.7,0.2,0.8,0.5c0.2,0.4,0.5,0.8,1,1.5c0.3-0.3,0.6-0.6,0.9-1c0.2-0.3,0.4-0.7,0.5-1h0.3c0.3,0,0.4,0.2,0.4,0.6
				c0,0.3-0.1,0.6-0.6,1.1c-0.2,0.3-0.6,0.6-1,1.1l1.1,1.5C-59.8-137.7-59.4-137.4-59-137L-59-137z"/>
		</g>
	</g>
	<g id="Groupe_9" transform="translate(14.857 171.711)" class="st3">
		<path id="Tracé_44" class="st5" d="M6-87.3c-2.5,0-4.5,2-4.5,4.5s2,4.5,4.5,4.5s4.5-2.1,4.6-4.6C10.6-85.3,8.5-87.3,6-87.3z"/>
		<path id="Tracé_45" class="st5" d="M101-45.1c-2.5,0-4.5,2.1-4.5,4.6s2.1,4.5,4.6,4.5s4.5-2,4.5-4.5
			C105.5-43.1,103.5-45.1,101-45.1z"/>
	</g>
</g>
<g id="Groupe_18" transform="translate(-14.536 -9.21)">
	<path id="Tracé_12_1_" class="st6" d="M121.1,21.2c7.2,6.7,11.1,16,10.9,25.8c0.2,9.8-3.6,19.3-10.4,26.3
		C106,89.1,74.8,83.4,67.5,103c-5.3-18.4-16-63.1,3.1-82.4c6.8-6.9,16-10.7,25.5-10.5C105.4,10,114.6,13.9,121.1,21.2z"/>
	<path id="Tracé_13_1_" class="st6" d="M82.8,163.8c-4.3,0-8.5-1.5-11.6-4.8c-8.5-8.6-3.7-28.6-1.4-36.9
		c3.4,8.9,17.4,6.3,24.4,13.3c3.1,3.1,4.8,7.4,4.8,11.8c0.2,4.4-1.7,8.6-4.9,11.6C91.3,162.2,87,163.9,82.8,163.8z"/>
	<path id="Tracé_15_1_" class="st6" d="M97,105.8c-5.1-0.8-5.3-1.4-5.3-2.4c0-1.2,0.5-2.7,5.2-2.7c3.1,0,6.3,1,7.8,2.5l0.1,0.1h0.9
		v-3.1c0-3.1-3-6.5-9.5-6.5c-7.1,0-12.4,4.4-12.4,10.2c0,4.5,3,7.1,9.2,7.9c5.1,0.7,5.5,1.5,5.5,2.7s-0.5,2.7-4.7,2.7
		c-3.4,0-6.9-1.3-8.2-2.6h-0.1h-0.9v3.6c0,3.3,4.3,6,9.5,6c7.8,0,12.2-3.6,12.2-10C106.4,109.7,103.2,106.8,97,105.8z"/>
	<g id="Groupe_6_1_" transform="translate(14.536 86.656)">
		<path id="Tracé_14_1_" class="st6" d="M27.5,6.9c-9.1,0-13.2,6.3-13.2,12.7v12.3c0,3.1,2.2,5.1,5.4,5.1h2.5V20.1
			c0-3.8,1.9-6,4.7-6c3.6,0,5.2,2.1,5.2,6.5v11.3c0,3.1,2.4,5.1,5.6,5.1h2.4V19.9C40,10.8,33.7,6.9,27.5,6.9z"/>
		<path id="Tracé_16_1_" class="st6" d="M96.6,13.9v23.3H99c3.6,0,5.5-2.1,5.5-5.6V8.3h-2.4C98.5,8.3,96.6,10.3,96.6,13.9z"/>
		<path id="Tracé_17_1_" class="st6" d="M0.9,13.9v23.3h2.4c3.6,0,5.5-2.1,5.5-5.6V8.3H6.4C2.8,8.3,0.9,10.3,0.9,13.9z"/>
		<path id="Tracé_18_1_" class="st6" d="M118.2,1.1h-2c-1.5,0.2-2.7,0.9-3.6,2.1c-1.5,1.5-2.4,3.8-2.2,6v17.1
			c0,7.2,3.9,10.9,11.1,10.9c4.3,0,6.7-1.9,6.7-5.1v-2.9h-0.9h-0.2c-1.5,0.7-3.2,1-5,1c-2.7,0-4.1-1.4-4.1-4.8V14.6h5.3
			c3.1,0,4.6-2.1,4.6-3.8V7.4h-9.9V1.1H118.2z"/>
		<path id="Tracé_19_1_" class="st6" d="M150.7,7.3H149v16.4c0,4.3-1.5,6.5-4.6,6.5c-3.4,0-5.2-2.4-5.2-7V12.9c0-3.6-2-5.5-6.3-5.5
			h-1.7v16.8c0,8,5.2,13.3,12.9,13.3c8.5,0,12.9-4.6,12.9-13.9V12.9C157,9.2,154.9,7.3,150.7,7.3z"/>
	</g>
	<g id="Groupe_9_1_" transform="translate(14.681 82.399)">
		<path id="Tracé_44_1_" class="st6" d="M6.2,1.4c-2.5,0-4.5,2-4.5,4.6s2,4.6,4.5,4.6s4.5-2,4.5-4.6S8.7,1.4,6.2,1.4z"/>
		<path id="Tracé_45_1_" class="st6" d="M101.2,44c-2.5,0-4.6,2.1-4.6,4.6c0,2.6,2,4.6,4.6,4.6s4.6-2.1,4.6-4.6
			C105.7,46.2,103.7,44.2,101.2,44z"/>
	</g>
</g>
</svg>
