<?xml version="1.0" encoding="utf-8"?>
<!-- Generator: Adobe Illustrator 24.3.0, SVG Export Plug-In . SVG Version: 6.00 Build 0)  -->
<svg version="1.1" id="Calque_1" xmlns="http://www.w3.org/2000/svg" xmlns:xlink="http://www.w3.org/1999/xlink" x="0px" y="0px"
	 viewBox="0 0 157 153.3" style="enable-background:new 0 0 157 153.3;" xml:space="preserve">
<style type="text/css">
	.st0{fill:#FFFFFF;}
</style>
<g id="Groupe_18" transform="translate(-14.536 -9.21)">
	<path id="Tracé_12" class="st0" d="M111.5,47.2c4.2,3.9,6.5,9.3,6.4,15c0.1,5.7-2.1,11.2-6.1,15.3c-9.2,9.2-27.5,5.9-31.8,17.3
		c-3.1-10.7-9.4-36.7,1.8-47.9c4-4,9.4-6.2,15-6.1C102.3,40.7,107.7,43,111.5,47.2z"/>
	<path id="Tracé_13" class="st0" d="M89,130.8c-2.5,0-5-0.9-6.8-2.8c-5-5-2.2-16.7-0.8-21.6c2,5.2,10.2,3.7,14.3,7.8
		c1.8,1.8,2.8,4.3,2.8,6.9c0.1,2.6-1,5-2.9,6.8C94,129.9,91.5,130.9,89,130.8z"/>
	<g id="Groupe_6" transform="translate(14.536 86.656)">
		<path id="Tracé_14" class="st0" d="M50.8,3.1c-5.4,0-7.8,3.7-7.8,7.4v7.2c0,1.8,1.3,3,3.2,3h1.5v-9.9c0-2.2,1.1-3.5,2.8-3.5
			c2.1,0,3.1,1.2,3.1,3.8v6.6c0,1.8,1.4,3,3.3,3h1.4v-10C58.2,5.4,54.5,3.1,50.8,3.1z"/>
		<path id="Tracé_15" class="st0" d="M83.3,10.2c-3-0.5-3.1-0.8-3.1-1.4c0-0.7,0.3-1.6,3.1-1.6c1.8,0,3.7,0.6,4.6,1.5l0.1,0.1h0.5
			V6.9c0-1.8-1.7-3.8-5.6-3.8c-4.2,0-7.3,2.6-7.3,6c0,2.6,1.8,4.2,5.5,4.7c3,0.4,3.2,0.9,3.2,1.6s-0.3,1.6-2.8,1.6
			c-2,0-4-0.8-4.8-1.5l-0.1-0.1H76v2.1c0,1.9,2.5,3.5,5.6,3.5c4.6,0,7.2-2.1,7.2-5.9C88.8,12.4,87,10.8,83.3,10.2z"/>
		<path id="Tracé_16" class="st0" d="M91.6,7.2v13.6H93c2.1,0,3.2-1.2,3.2-3.3V3.9h-1.4C92.7,3.9,91.6,5.1,91.6,7.2z"/>
		<path id="Tracé_17" class="st0" d="M35.1,7.2v13.6h1.4c2.1,0,3.2-1.2,3.2-3.3V3.9h-1.4C36.2,3.9,35.1,5.1,35.1,7.2z"/>
		<path id="Tracé_18" class="st0" d="M104.3-0.3h-1.2c-0.9,0.1-1.6,0.5-2.1,1.2c-0.9,0.9-1.4,2.2-1.3,3.5v10c0,4.2,2.3,6.4,6.5,6.4
			c2.5,0,3.9-1.1,3.9-3v-1.7h-0.5l-0.1,0c-0.9,0.4-1.9,0.6-2.9,0.6c-1.6,0-2.4-0.8-2.4-2.8V7.6h3.1c1.8,0,2.7-1.2,2.7-2.2v-2h-5.8
			V-0.3z"/>
		<path id="Tracé_19" class="st0" d="M123.5,3.4h-1v9.6c0,2.5-0.9,3.8-2.7,3.8c-2,0-3.1-1.4-3.1-4.1V6.7c0-2.1-1.2-3.2-3.7-3.2h-1
			v9.8c0,4.7,3.1,7.8,7.6,7.8c5,0,7.6-2.7,7.6-8.1V6.7C127.2,4.5,126,3.4,123.5,3.4z"/>
	</g>
	<g id="Groupe_9" transform="translate(14.681 82.399)">
		<path id="Tracé_44" class="st0" d="M37.7,1.4c-1.5,0-2.7,1.2-2.7,2.7c0,1.5,1.2,2.7,2.7,2.7c1.5,0,2.7-1.2,2.7-2.7
			C40.4,2.6,39.2,1.4,37.7,1.4z"/>
		<path id="Tracé_45" class="st0" d="M93.7,26.3c-1.5,0-2.7,1.2-2.7,2.7c0,1.5,1.2,2.7,2.7,2.7c1.5,0,2.7-1.2,2.7-2.7
			C96.4,27.6,95.2,26.4,93.7,26.3z"/>
	</g>
</g>
</svg>
